PathFileType	4	(X/Y/Z)	SUBJ89_2_walk_RCNL2025.trc
DataRate	CameraRate	NumFrames	NumMarkers	Units	OrigDataRate	OrigDataStartFrame	OrigNumFrames
100	100	13	25	mm	100	69	274
Frame#	Time	R_Shoulder			L_Shoulder			C7			J_Notch			R_Elbow			L_Elbow			R_Wrist			L_Wrist			R_Asis			L_Asis			Sacral			Thoracic			Sternum			R_Thigh_Lateral			R_Knee_Lateral			R_Shank_Lateral			R_Ankle_Lateral			R_Heel			R_Toe			L_Thigh_Lateral			L_Knee_Lateral			L_Shank_Lateral			L_Ankle_Lateral			L_Heel			L_Toe		
		X1	Y1	Z1	X2	Y2	Z2	X3	Y3	Z3	X4	Y4	Z4	X5	Y5	Z5	X6	Y6	Z6	X7	Y7	Z7	X8	Y8	Z8	X9	Y9	Z9	X10	Y10	Z10	X11	Y11	Z11	X12	Y12	Z12	X13	Y13	Z13	X14	Y14	Z14	X15	Y15	Z15	X16	Y16	Z16	X17	Y17	Z17	X18	Y18	Z18	X19	Y19	Z19	X20	Y20	Z20	X21	Y21	Z21	X22	Y22	Z22	X23	Y23	Z23	X24	Y24	Z24	X25	Y25	Z25
69	0.68000000	-106.283058	1381.653809	-14.365300	-117.818413	1409.758423	-426.385925	-178.137192	1488.329102	-215.280304	-60.300617	1362.538818	-220.629639	-220.015015	1062.076172	13.454999	-105.736237	1069.709839	-482.588654	-161.750351	797.685272	28.455832	76.827169	871.657196	-462.612274	-68.944511	976.661804	-115.572609	-66.791000	957.844421	-352.269806	-236.105789	1026.592407	-227.394302	-261.499725	1307.696533	-223.992981	-23.751516	1216.583862	-236.831482	-11.570828	608.774414	-54.664364	23.794409	499.442902	-113.902527	13.044140	275.026886	-74.001259	-7.987931	69.151390	-150.160217	-44.802963	60.824234	-196.684509	152.913818	34.005741	-164.312805	-162.633774	533.053711	-443.680695	-194.621674	451.994568	-373.223297	-395.118927	325.938416	-407.793762	-542.914001	195.415115	-336.402740	-553.954407	227.163101	-284.644043	-485.586853	51.857990	-327.065460
70	0.69000000	-90.377396	1383.975464	-13.426292	-103.621796	1412.070679	-425.220398	-163.372620	1490.584839	-213.930450	-45.535877	1364.811768	-219.835327	-203.018036	1064.027344	14.658254	-94.322685	1071.523071	-480.239105	-143.600380	799.874207	29.168324	86.321278	871.474701	-462.091660	-53.694065	978.906738	-114.513405	-52.512157	960.243958	-351.411621	-221.440048	1028.614868	-226.075867	-246.763672	1309.828247	-222.582657	-9.100739	1218.819458	-236.324036	-1.806701	608.594360	-54.164631	32.157452	498.916412	-113.506126	16.679419	274.532715	-73.898903	-7.642325	69.326378	-150.401306	-44.583904	61.186073	-196.770187	153.126938	34.024948	-164.339340	-138.633926	534.115112	-444.306488	-166.969025	452.677643	-374.142151	-369.845642	331.050842	-406.873138	-519.109863	202.889984	-334.751190	-528.566772	233.706284	-282.072144	-464.597290	58.202126	-330.836639
71	0.70000000	-74.589958	1386.438843	-12.569690	-89.807625	1414.353271	-424.240112	-148.745193	1492.948486	-212.687607	-30.963398	1367.172485	-219.164276	-186.073898	1066.090210	15.946803	-83.204895	1073.336792	-478.031555	-125.159721	802.253571	29.810061	95.375881	871.275757	-461.607010	-38.434937	980.949158	-113.627823	-38.519455	962.895203	-350.858765	-206.913513	1030.762451	-224.634155	-232.172134	1312.076782	-221.091309	5.335318	1221.115601	-235.932022	7.052265	608.268982	-53.600231	39.591267	498.263458	-113.033958	19.911720	273.946136	-73.735168	-7.359392	69.454948	-150.529099	-44.391827	61.518085	-196.769485	153.201447	34.112286	-164.262634	-115.085335	535.814758	-444.928192	-139.231934	454.103394	-375.004700	-343.763458	335.985535	-405.754730	-493.772888	209.266525	-332.840454	-501.990234	238.876648	-279.239746	-440.300568	64.578072	-334.878296
72	0.71000000	-58.944778	1389.010376	-11.773700	-76.358673	1416.608765	-423.419495	-134.248199	1495.384277	-211.530029	-16.558317	1369.593506	-218.586395	-169.183472	1068.230225	17.322153	-72.356506	1075.165649	-475.984070	-106.449253	804.789520	30.384472	104.004158	871.081268	-461.177124	-23.205650	982.833923	-112.875671	-24.754173	965.724792	-350.526154	-192.497314	1033.013428	-223.121704	-217.708694	1314.401001	-219.513596	19.597670	1223.456787	-235.621719	15.357224	607.943787	-53.010071	46.302181	497.562164	-112.557098	23.072603	273.344849	-73.558754	-7.088035	69.559898	-150.569122	-44.204659	61.840393	-196.697327	153.211456	34.206371	-164.124725	-91.876709	538.125610	-445.522278	-111.516212	456.248779	-375.819489	-317.022705	340.639038	-404.518799	-467.030884	214.355759	-330.815735	-474.346802	242.621902	-276.337280	-413.107086	70.527100	-338.837585
73	0.72000000	-43.456402	1391.658447	-11.021387	-63.237373	1418.846924	-422.726471	-119.876030	1497.852295	-210.438538	-2.293628	1372.044556	-218.076004	-152.347382	1070.420532	18.781719	-61.760578	1077.029663	-474.108734	-87.490074	807.455109	30.892950	112.214752	870.908997	-460.822510	-8.067308	984.606873	-112.201988	-11.143950	968.654968	-350.295746	-178.168106	1035.338867	-221.586807	-203.356506	1316.756104	-217.860657	33.728271	1225.828125	-235.361725	23.357519	607.708496	-52.443928	52.455219	496.865753	-112.141022	26.331005	272.781097	-73.418526	-6.798873	69.661148	-150.555618	-44.009960	62.164791	-196.582001	153.207764	34.276131	-163.969299	-68.878990	540.965881	-446.065582	-83.905251	459.028564	-376.585022	-289.748322	344.853668	-403.262268	-439.011688	218.015549	-328.824341	-445.763641	244.942184	-273.566284	-383.420990	75.673981	-342.367645
74	0.73000000	-28.128565	1394.349487	-10.302525	-50.390591	1421.075684	-422.129456	-105.621170	1500.310547	-209.399551	11.856426	1374.494141	-217.613480	-135.567047	1072.635132	20.320972	-51.409710	1078.942627	-472.409790	-68.302679	810.226013	31.333574	120.018047	870.768524	-460.561417	6.898752	986.297363	-111.552765	2.391100	971.616211	-350.043579	-163.910492	1037.700928	-220.070465	-189.098740	1319.096680	-216.156876	47.762840	1228.212769	-235.121490	31.191113	607.590332	-51.948505	58.165886	496.203949	-111.830017	29.675020	272.289459	-73.341568	-6.480535	69.773872	-150.522873	-43.804005	62.498146	-196.453354	153.220856	34.311050	-163.834229	-45.989414	544.212036	-446.534576	-56.468262	462.322144	-377.288147	-262.031952	348.446869	-402.078766	-409.834503	220.152924	-326.997040	-416.361938	245.870026	-271.108856	-351.596863	79.740532	-345.175415
75	0.74000000	-12.954757	1397.046143	-9.613302	-37.752476	1423.293091	-421.600281	-91.472916	1502.715942	-208.406586	25.915049	1376.911133	-217.184967	-118.843140	1074.845337	21.934233	-41.303314	1080.903809	-470.884766	-48.906044	813.076996	31.700089	127.431576	870.657806	-460.411652	21.621027	987.914062	-110.881783	15.926659	974.555725	-349.669922	-149.717285	1040.054443	-218.605743	-174.918625	1321.378296	-214.434494	61.726936	1230.588257	-234.871155	38.911633	607.574219	-51.556248	63.504662	495.589478	-111.638908	32.959152	271.890869	-73.324478	-6.134328	69.909241	-150.498199	-43.589252	62.846020	-196.334610	153.265411	34.312511	-163.742905	-23.136755	547.727173	-446.907867	-29.265596	465.998260	-377.904785	-233.921509	351.237396	-401.049377	-379.603210	220.722519	-325.433838	-386.244415	245.452332	-269.102875	-317.929230	82.550049	-347.057312
76	0.75000000	2.079385	1399.706787	-8.954790	-25.247057	1425.482666	-421.114594	-77.418449	1505.027100	-207.459122	39.902557	1379.263672	-216.781403	-102.173874	1077.018433	23.614040	-31.442579	1082.896118	-469.525940	-29.317730	815.979797	31.982486	134.484818	870.560913	-460.394730	36.068920	989.452087	-110.153214	29.519985	977.436646	-349.116882	-135.588364	1042.350220	-217.218781	-160.801224	1323.559937	-212.727386	75.639046	1232.924561	-234.588852	46.530369	607.630798	-51.277702	68.509537	495.027374	-111.552635	35.994289	271.593323	-73.337814	-5.767450	70.076134	-150.497314	-43.369701	63.214859	-196.239777	153.344543	34.287613	-163.700714	-0.269021	551.394775	-447.171021	-2.348829	469.930817	-378.403717	-205.418472	353.063232	-400.240601	-348.401917	219.723907	-324.196167	-355.487579	243.737640	-267.627472	-282.653381	84.027725	-347.919128
77	0.76000000	16.992441	1402.286377	-8.331118	-12.794802	1427.614258	-420.654175	-63.444607	1507.206909	-206.559952	53.836159	1381.518921	-216.397644	-85.555618	1079.116943	25.350807	-21.825516	1084.887451	-468.320496	-9.556653	818.903229	32.170137	141.218006	870.449066	-460.533585	50.252151	990.898560	-109.347229	43.197536	980.229492	-348.368317	-121.527641	1044.540649	-215.929932	-146.735474	1325.605591	-211.066208	89.515694	1235.184814	-234.268311	54.050724	607.733826	-51.099121	73.201851	494.520691	-111.533852	38.636547	271.391479	-73.341454	-5.386722	70.281944	-150.524384	-43.147076	63.612907	-196.174179	153.453979	34.245132	-163.698135	22.653677	555.136108	-447.318604	24.241850	474.004974	-378.750977	-176.489517	353.797363	-399.699738	-316.290955	217.197495	-323.306854	-324.138519	240.769318	-266.701111	-245.948471	84.196213	-347.778259
78	0.77000000	31.803297	1404.738770	-7.747125	-0.321561	1429.647949	-420.209076	-49.538929	1509.223145	-205.713043	67.729622	1383.643066	-216.031036	-68.983925	1081.100952	27.132761	-12.442311	1086.836060	-467.251404	10.355355	821.814087	32.254561	147.673939	870.285004	-460.843506	64.198448	992.233765	-108.463776	56.954659	982.903748	-347.440125	-107.538330	1046.584106	-214.754166	-132.713913	1327.485107	-209.476852	103.370552	1237.328491	-233.915421	61.484421	607.864929	-50.988113	77.602783	494.069824	-111.537186	40.837990	271.269531	-73.303276	-4.996297	70.531914	-150.577438	-42.919193	64.049164	-196.138657	153.586334	34.192684	-163.715424	45.652958	558.906311	-447.351624	50.478043	478.117828	-378.915253	-147.088348	353.366394	-399.446350	-283.306000	213.218185	-322.754974	-292.214874	236.584854	-266.288452	-207.945786	83.161201	-346.747894
79	0.78000000	46.527725	1407.020874	-7.206312	12.234972	1431.538940	-419.776459	-35.689312	1511.047363	-204.922882	81.593391	1385.603027	-215.679642	-52.452885	1082.929565	28.945732	-3.269823	1088.696655	-466.301941	30.396197	824.677856	32.230697	153.891815	870.028564	-461.327072	77.934502	993.431519	-107.519310	70.770065	985.424011	-346.370148	-93.620255	1048.446045	-213.701599	-118.730743	1329.175049	-207.981033	117.211044	1239.314331	-233.538910	68.850647	608.012512	-50.903587	81.745895	493.670746	-111.523781	42.648460	271.208588	-73.211578	-4.598537	70.827774	-150.655716	-42.678963	64.530128	-196.137939	153.734451	34.135830	-163.728943	68.720413	562.677063	-447.272461	76.337181	482.180969	-378.875549	-117.179161	351.765961	-399.464813	-249.461411	207.888580	-322.502899	-259.705292	231.219376	-266.312866	-168.744400	81.086555	-345.009735
80	0.79000000	61.177433	1409.094727	-6.710776	24.921738	1433.241699	-419.359406	-21.882797	1512.655518	-204.194427	95.435616	1387.365601	-215.341797	-35.953396	1084.565308	30.773935	5.730883	1090.424927	-465.460236	50.545864	827.460907	32.098663	159.907379	869.640656	-461.977798	91.478737	994.462341	-106.539505	84.621811	987.750366	-345.209045	-79.770599	1050.098633	-212.778671	-104.780479	1330.656860	-206.596558	131.039337	1241.103149	-233.145142	76.165115	608.167419	-50.805233	85.680710	493.316223	-111.469742	44.181587	271.194061	-73.077629	-4.195574	71.166443	-150.764786	-42.413269	65.056763	-196.187683	153.892883	34.079071	-163.720703	91.813019	566.420654	-447.080566	101.792526	486.125092	-378.627838	-86.755173	349.064240	-399.704926	-214.757767	201.334503	-322.493805	-226.571838	224.711716	-266.672455	-128.428604	78.168640	-342.784882
81	0.80000000	75.761253	1410.930176	-6.261992	37.768200	1434.714600	-418.965546	-8.104966	1514.027588	-203.532333	109.263649	1388.900024	-215.016632	-19.472956	1085.976562	32.601490	14.609392	1091.983276	-464.718567	70.785931	830.132751	31.863789	165.754868	869.085968	-462.785690	104.843796	995.298767	-105.551895	98.494423	989.840454	-344.010956	-65.985352	1051.520264	-211.988098	-90.858406	1331.916016	-205.336609	144.855530	1242.659424	-232.739166	83.429306	608.317993	-50.661896	89.467728	492.997650	-111.368095	45.567650	271.216431	-72.930389	-3.791404	71.540382	-150.917603	-42.102665	65.623993	-196.317169	154.057663	34.026802	-163.684341	114.860596	570.100769	-446.769287	126.807053	489.900543	-378.182037	-55.849125	345.390900	-400.090790	-179.190430	193.701904	-322.660980	-192.756241	217.113358	-267.255768	-87.079834	74.618279	-340.308929
